<?xml version="1.0" encoding="utf-8"?>
<!-- Generator: Adobe Illustrator 25.2.3, SVG Export Plug-In . SVG Version: 6.00 Build 0)  -->
<svg version="1.1" id="Layer_1" xmlns="http://www.w3.org/2000/svg" xmlns:xlink="http://www.w3.org/1999/xlink" x="0px" y="0px"
	 viewBox="0 0 60 60" style="enable-background:new 0 0 60 60;" xml:space="preserve">
<style type="text/css">
	.st0{fill:#FFFFFF;}
</style>
<g>
	<path d="M28.45,15.83c1.72,2.04,3.38,3.97,4.98,5.94c0.51,0.62,0.91,0.75,1.55,0.22c0.58-0.48,1.23-0.87,1.96-1.37
		c1.07,1.33,2.13,2.64,3.18,3.96c2.95,3.73,5.93,7.45,8.83,11.22c0.58,0.76,1.08,0.81,1.88,0.5c1.78-0.69,1.78-0.65,3.01,0.77
		c1.98,2.3,3.97,4.59,6.15,7.1c-3.82-1.3-7.37-2.5-10.92-3.7c-2.36-0.8-4.71-1.64-7.1-2.39c-0.56-0.17-1.26-0.19-1.82-0.02
		c-2.81,0.82-5.6,1.72-8.4,2.58c-0.37,0.11-0.74,0.21-1.17,0.33c-0.81-1.61-1.63-3.14-2.37-4.71c-0.38-0.81-0.77-1.07-1.73-0.75
		c-8.41,2.8-16.85,5.53-25.27,8.28c-0.29,0.1-0.59,0.18-1.23,0.37c4-4.65,7.8-9.06,11.59-13.46c0.15,0.06,0.23,0.08,0.28,0.13
		c2.08,1.74,1.39,1.93,3.36-0.25C19.62,25.71,23.97,20.83,28.45,15.83z M38.35,30.18c0.08-0.08,0.17-0.16,0.25-0.24
		c-3.23-4.04-6.45-8.07-9.68-12.11c-0.12,0.06-0.23,0.12-0.35,0.17c0,1.22,0.14,2.46-0.03,3.65c-0.36,2.46,0.44,4.24,2.59,5.54
		c1.22,0.73,2.27,1.74,3.4,2.63c0.07-0.07,0.13-0.13,0.2-0.2c-0.89-1.34-1.77-2.67-2.66-4.01c0.06-0.04,0.12-0.09,0.19-0.13
		C34.29,27.05,36.32,28.61,38.35,30.18z M30.21,29.98c0.06-0.08,0.12-0.16,0.19-0.25c-0.45-0.59-0.89-1.17-1.38-1.82
		c0.3-0.03,0.5-0.04,0.91-0.08c-1.8-1.71-3.46-3.28-5.12-4.86c-0.1,0.06-0.19,0.13-0.29,0.19c0,1.18-0.02,2.36,0.02,3.54
		c0.01,0.22,0.21,0.53,0.41,0.64C26.69,28.24,28.45,29.1,30.21,29.98z M38.17,24.23c-0.11,0.05-0.21,0.09-0.32,0.14
		c0,0.59-0.03,1.18,0.01,1.77c0.04,0.49-0.02,1.22,0.27,1.43c1.85,1.31,3.78,2.51,5.68,3.74c0.07-0.08,0.14-0.16,0.21-0.24
		C42.08,28.78,40.12,26.5,38.17,24.23z M11.5,33.78c1.37,1.07,2.57,2,3.76,2.94C13.78,33.2,13.96,33.32,11.5,33.78z M54.78,38.98
		c-0.73-0.86-1.47-1.73-2.31-2.72C52.09,37.96,52.34,38.26,54.78,38.98z"/>
	<path class="st0" d="M38.35,30.18c-2.03-1.57-4.06-3.14-6.09-4.7c-0.06,0.04-0.12,0.09-0.19,0.13c0.89,1.34,1.77,2.67,2.66,4.01
		c-0.07,0.07-0.13,0.13-0.2,0.2c-1.13-0.88-2.18-1.89-3.4-2.63c-2.15-1.3-2.95-3.07-2.59-5.54c0.17-1.19,0.03-2.43,0.03-3.65
		c0.12-0.06,0.23-0.12,0.35-0.17c3.23,4.04,6.45,8.07,9.68,12.11C38.52,30.02,38.44,30.1,38.35,30.18z"/>
	<path class="st0" d="M30.21,29.98c-1.76-0.87-3.52-1.74-5.26-2.64c-0.2-0.1-0.4-0.42-0.41-0.64c-0.04-1.18-0.02-2.36-0.02-3.54
		c0.1-0.06,0.19-0.13,0.29-0.19c1.66,1.57,3.32,3.15,5.12,4.86c-0.42,0.04-0.62,0.05-0.91,0.08c0.49,0.65,0.94,1.23,1.38,1.82
		C30.33,29.81,30.27,29.89,30.21,29.98z"/>
	<path class="st0" d="M38.17,24.23c1.95,2.28,3.9,4.55,5.86,6.83c-0.07,0.08-0.14,0.16-0.21,0.24c-1.9-1.23-3.84-2.43-5.68-3.74
		c-0.29-0.2-0.23-0.93-0.27-1.43c-0.04-0.59-0.01-1.18-0.01-1.77C37.96,24.32,38.07,24.27,38.17,24.23z"/>
	<path class="st0" d="M11.5,33.78c2.46-0.46,2.28-0.58,3.76,2.94C14.07,35.79,12.87,34.85,11.5,33.78z"/>
	<path class="st0" d="M54.78,38.98c-2.44-0.72-2.7-1.02-2.31-2.72C53.31,37.25,54.05,38.12,54.78,38.98z"/>
</g>
</svg>
